<svg width="24" height="38" viewBox="0 0 24 38" fill="none" xmlns="http://www.w3.org/2000/svg">
<g clip-path="url(#clip0_1_2)">
<path d="M11.9203 37.9666V28.4495L0.168273 21.5648L11.9203 37.9666Z" fill="white"/>
<path fill-rule="evenodd" clip-rule="evenodd" d="M0.143513 21.5424C0.15417 21.5306 0.171552 21.528 0.185203 21.5359L11.9372 28.4206C11.9475 28.4267 11.9538 28.4377 11.9538 28.4495V37.9666C11.9538 37.981 11.9444 37.9939 11.9305 37.9985C11.9167 38.0029 11.9015 37.9979 11.893 37.9859L0.141043 21.5844C0.131825 21.5717 0.132855 21.554 0.143513 21.5424ZM0.287301 21.6735L11.8868 37.8622V28.4687L0.287301 21.6735Z" fill="black"/>
<path d="M11.9592 37.9666V28.4495L23.7112 21.5648L11.9592 37.9666Z" fill="white"/>
<path fill-rule="evenodd" clip-rule="evenodd" d="M23.7358 21.5424C23.7465 21.554 23.7476 21.5717 23.7383 21.5844L11.9865 37.9859C11.978 37.9979 11.9628 38.0029 11.949 37.9985C11.9351 37.9939 11.9257 37.981 11.9257 37.9666V28.4495C11.9257 28.4377 11.932 28.4267 11.9423 28.4206L23.6943 21.5359C23.7079 21.528 23.7252 21.5306 23.7358 21.5424ZM11.9927 28.4687V37.8622L23.5921 21.6735L11.9927 28.4687Z" fill="black"/>
<path d="M11.9203 26.084V13.9378L0.0335064 19.27L11.9203 26.084Z" fill="white"/>
<path fill-rule="evenodd" clip-rule="evenodd" d="M11.9385 13.9096C11.948 13.9158 11.9538 13.9264 11.9538 13.9378V26.084C11.9538 26.0959 11.9474 26.1069 11.9371 26.113C11.9268 26.1189 11.914 26.1189 11.9036 26.113L0.0168506 19.2991C0.00591382 19.2928 -0.000581375 19.281 4.10489e-05 19.2683C0.000663474 19.2557 0.00829821 19.2445 0.0197997 19.2394L11.9066 13.9072C11.9169 13.9025 11.929 13.9034 11.9385 13.9096ZM0.107277 19.2736L11.8868 26.0262V13.9895L0.107277 19.2736Z" fill="black"/>
<path d="M11.9592 26.084V13.9378L23.846 19.27L11.9592 26.084Z" fill="white"/>
<path fill-rule="evenodd" clip-rule="evenodd" d="M11.941 13.9096C11.9505 13.9034 11.9625 13.9025 11.9729 13.9072L23.8597 19.2394C23.8712 19.2445 23.8788 19.2557 23.8794 19.2683C23.8802 19.281 23.8735 19.2928 23.8627 19.2991L11.9758 26.113C11.9655 26.1189 11.9527 26.1189 11.9424 26.113C11.932 26.1069 11.9257 26.0959 11.9257 26.084V13.9378C11.9257 13.9264 11.9314 13.9158 11.941 13.9096ZM11.9927 13.9895V26.0262L23.7721 19.2736L11.9927 13.9895Z" fill="black"/>
<path d="M0.0335179 19.27L11.9203 0.0335297V13.9378L0.0335179 19.27Z" fill="white"/>
<path fill-rule="evenodd" clip-rule="evenodd" d="M11.9294 0.00127978C11.9438 0.00537647 11.9538 0.0185428 11.9538 0.0335295V13.9378C11.9538 13.951 11.946 13.9629 11.934 13.9684L0.0472146 19.3006C0.033784 19.3067 0.0179966 19.303 0.00829987 19.292C-0.00139692 19.281 -0.00273249 19.2649 0.00500781 19.2523L11.8918 0.0158982C11.8996 0.00315125 11.915 -0.0028169 11.9294 0.00127978ZM0.11942 19.1947L11.8867 13.9161V0.151506L0.11942 19.1947Z" fill="black"/>
<path d="M23.846 19.27L11.9592 0.0335297V13.9378L23.846 19.27Z" fill="white"/>
<path fill-rule="evenodd" clip-rule="evenodd" d="M11.9501 0.00127978C11.9645 -0.0028169 11.9798 0.00315124 11.9877 0.0158981L23.8745 19.2523C23.8823 19.2649 23.8809 19.281 23.8712 19.292C23.8616 19.303 23.8456 19.3067 23.8323 19.3006L11.9455 13.9684C11.9335 13.9629 11.9257 13.951 11.9257 13.9378V0.0335295C11.9257 0.0185428 11.9357 0.00537647 11.9501 0.00127978ZM11.9927 0.151506V13.9161L23.7602 19.1947L11.9927 0.151506Z" fill="black"/>
</g>
<defs>
<clipPath id="clip0_1_2">
<rect width="23.9259" height="38" fill="white"/>
</clipPath>
</defs>
</svg>
